<svg xmlns="http://www.w3.org/2000/svg" viewBox="0 0 260 243"><defs><style>.f00f8ea5-8752-4124-9dc5-fd475135768e{fill:#efa3e9;}.b6cd7d3b-7574-4ca2-b08c-22a20b14342f{fill:#e585e5;}.ad1fbefa-a8c6-42a8-861d-93de6e5a57b7{fill:#e5bde5;}.f13b34f4-31d3-4350-b622-fbbf8a99b544{fill:#bc67c1;}.bc66763c-d60f-4391-b22a-bfcc3d0f472e{fill:#e2eaf0;}.bfdbcd3d-110f-4ee7-96e6-cdaa81358715{fill:#f2f5f7;}</style></defs><title>Artboard 3</title><g id="b4ea4be6-45da-4b88-a0e6-fd68a545310c" data-name="house"><polygon class="f00f8ea5-8752-4124-9dc5-fd475135768e" points="0 243 0 89 0 78 131 1 260 77 260 243 132 243 123 238 123 95 43 95 43 238 35 243 0 243"/><polygon class="b6cd7d3b-7574-4ca2-b08c-22a20b14342f" points="0 79 0 90 133 9 260 82 259 77 130 1 0 79"/><polygon class="ad1fbefa-a8c6-42a8-861d-93de6e5a57b7" points="35 82 35 242 43 238 43 95 123 95 122 238 132 243 132 82 35 82"/><rect class="f13b34f4-31d3-4350-b622-fbbf8a99b544" x="151" y="96" width="77" height="77"/><rect class="f13b34f4-31d3-4350-b622-fbbf8a99b544" x="147" y="173" width="85" height="6"/><rect class="bc66763c-d60f-4391-b22a-bfcc3d0f472e" x="192" y="100" width="32" height="33"/><polygon class="bfdbcd3d-110f-4ee7-96e6-cdaa81358715" points="192 119 192 126 224 108 224 101 192 119"/><polyline class="bfdbcd3d-110f-4ee7-96e6-cdaa81358715" points="192 100 192 107 205 100"/><rect class="bc66763c-d60f-4391-b22a-bfcc3d0f472e" x="155" y="138" width="32" height="31"/><polyline class="bfdbcd3d-110f-4ee7-96e6-cdaa81358715" points="159 138 155 140 155 147 171 138"/><rect class="bc66763c-d60f-4391-b22a-bfcc3d0f472e" x="155" y="100" width="32" height="33"/><polygon class="bfdbcd3d-110f-4ee7-96e6-cdaa81358715" points="155 120 155 127 187 109 187 102 155 120"/><polygon class="bfdbcd3d-110f-4ee7-96e6-cdaa81358715" points="167 133 180 133 187 129 187 122 167 133"/><rect class="bc66763c-d60f-4391-b22a-bfcc3d0f472e" x="192" y="138" width="32" height="31"/><polygon class="bfdbcd3d-110f-4ee7-96e6-cdaa81358715" points="192 149 192 156 224 138 212 138 192 149"/><polygon class="bfdbcd3d-110f-4ee7-96e6-cdaa81358715" points="204 169 217 169 224 165 224 158 204 169"/><polygon class="bfdbcd3d-110f-4ee7-96e6-cdaa81358715" points="155 169 167 169 187 158 187 151 155 169"/><polyline class="bfdbcd3d-110f-4ee7-96e6-cdaa81358715" points="224 133 224 131 220 133"/></g></svg>