<svg xmlns="http://www.w3.org/2000/svg" viewBox="0 0 260 243"><defs><style>.ad4a8e20-13bf-49f4-b91e-90c29b751c81{fill:#cf6fef;}.a09b380c-2f54-423e-9ad3-f364a2a51891{fill:#b85ae0;}.f0b32c13-784b-4f2b-a344-a21201349eef{fill:#d394ed;}.a6987151-4588-4ebc-9308-1dc07675f0e9{fill:#8f28b5;}.ed33fa76-bc96-40de-bf8c-e1ead7a41411{fill:#e2eaf0;}.a6085a24-e2e9-4873-b396-73381ed4b9f0{fill:#f2f5f7;}</style></defs><title>inArtboard 3</title><g id="b3ae184f-c914-424f-a90e-b7b68141c364" data-name="house"><polygon class="ad4a8e20-13bf-49f4-b91e-90c29b751c81" points="0 243 0 89 0 78 131 1 260 77 260 243 132 243 123 238 123 95 43 95 43 238 35 243 0 243"/><polygon class="a09b380c-2f54-423e-9ad3-f364a2a51891" points="0 79 0 90 133 9 260 82 259 77 130 1 0 79"/><polygon class="f0b32c13-784b-4f2b-a344-a21201349eef" points="35 82 35 242 43 238 43 95 123 95 122 238 132 243 132 82 35 82"/><rect class="a6987151-4588-4ebc-9308-1dc07675f0e9" x="151" y="96" width="77" height="77"/><rect class="a6987151-4588-4ebc-9308-1dc07675f0e9" x="147" y="173" width="85" height="6"/><rect class="ed33fa76-bc96-40de-bf8c-e1ead7a41411" x="192" y="100" width="32" height="33"/><polygon class="a6085a24-e2e9-4873-b396-73381ed4b9f0" points="192 119 192 126 224 108 224 101 192 119"/><polyline class="a6085a24-e2e9-4873-b396-73381ed4b9f0" points="192 100 192 107 205 100"/><rect class="ed33fa76-bc96-40de-bf8c-e1ead7a41411" x="155" y="138" width="32" height="31"/><polyline class="a6085a24-e2e9-4873-b396-73381ed4b9f0" points="159 138 155 140 155 147 171 138"/><rect class="ed33fa76-bc96-40de-bf8c-e1ead7a41411" x="155" y="100" width="32" height="33"/><polygon class="a6085a24-e2e9-4873-b396-73381ed4b9f0" points="155 120 155 127 187 109 187 102 155 120"/><polygon class="a6085a24-e2e9-4873-b396-73381ed4b9f0" points="167 133 180 133 187 129 187 122 167 133"/><rect class="ed33fa76-bc96-40de-bf8c-e1ead7a41411" x="192" y="138" width="32" height="31"/><polygon class="a6085a24-e2e9-4873-b396-73381ed4b9f0" points="192 149 192 156 224 138 212 138 192 149"/><polygon class="a6085a24-e2e9-4873-b396-73381ed4b9f0" points="204 169 217 169 224 165 224 158 204 169"/><polygon class="a6085a24-e2e9-4873-b396-73381ed4b9f0" points="155 169 167 169 187 158 187 151 155 169"/><polyline class="a6085a24-e2e9-4873-b396-73381ed4b9f0" points="224 133 224 131 220 133"/></g></svg>