<svg xmlns="http://www.w3.org/2000/svg" viewBox="0 0 260 243"><defs><style>.b3ac0d0c-1ac4-4477-a4f8-d68d2dec8be8{fill:#f26d6d;}.b908a76f-515c-40f5-8f25-d5af02c47e60{fill:#e25959;}.b7708d4d-444c-4301-99ef-3b5f2ffb413c{fill:#ef9292;}.a1ee96b8-f80c-4263-8bc5-d0cfc6aecf01{fill:#b72727;}.f4ccf0de-48b1-4a5c-abf8-a5d96f903698{fill:#e2eaf0;}.e912c302-1f54-4e99-9666-159f6227eea0{fill:#f2f5f7;}</style></defs><title>inArtboard 3</title><g id="bd0c1d5c-4107-4653-ba75-33a1c73bc1e6" data-name="house"><polygon class="b3ac0d0c-1ac4-4477-a4f8-d68d2dec8be8" points="0 243 0 89 0 78 131 1 260 77 260 243 132 243 123 238 123 95 43 95 43 238 35 243 0 243"/><polygon class="b908a76f-515c-40f5-8f25-d5af02c47e60" points="0 79 0 90 133 9 260 82 259 77 130 1 0 79"/><polygon class="b7708d4d-444c-4301-99ef-3b5f2ffb413c" points="35 82 35 242 43 238 43 95 123 95 122 238 132 243 132 82 35 82"/><rect class="a1ee96b8-f80c-4263-8bc5-d0cfc6aecf01" x="151" y="96" width="77" height="77"/><rect class="a1ee96b8-f80c-4263-8bc5-d0cfc6aecf01" x="147" y="173" width="85" height="6"/><rect class="f4ccf0de-48b1-4a5c-abf8-a5d96f903698" x="192" y="100" width="32" height="33"/><polygon class="e912c302-1f54-4e99-9666-159f6227eea0" points="192 119 192 126 224 108 224 101 192 119"/><polyline class="e912c302-1f54-4e99-9666-159f6227eea0" points="192 100 192 107 205 100"/><rect class="f4ccf0de-48b1-4a5c-abf8-a5d96f903698" x="155" y="138" width="32" height="31"/><polyline class="e912c302-1f54-4e99-9666-159f6227eea0" points="159 138 155 140 155 147 171 138"/><rect class="f4ccf0de-48b1-4a5c-abf8-a5d96f903698" x="155" y="100" width="32" height="33"/><polygon class="e912c302-1f54-4e99-9666-159f6227eea0" points="155 120 155 127 187 109 187 102 155 120"/><polygon class="e912c302-1f54-4e99-9666-159f6227eea0" points="167 133 180 133 187 129 187 122 167 133"/><rect class="f4ccf0de-48b1-4a5c-abf8-a5d96f903698" x="192" y="138" width="32" height="31"/><polygon class="e912c302-1f54-4e99-9666-159f6227eea0" points="192 149 192 156 224 138 212 138 192 149"/><polygon class="e912c302-1f54-4e99-9666-159f6227eea0" points="204 169 217 169 224 165 224 158 204 169"/><polygon class="e912c302-1f54-4e99-9666-159f6227eea0" points="155 169 167 169 187 158 187 151 155 169"/><polyline class="e912c302-1f54-4e99-9666-159f6227eea0" points="224 133 224 131 220 133"/></g></svg>