<svg xmlns="http://www.w3.org/2000/svg" viewBox="0 0 260 243"><defs><style>.b8b33b92-069e-403a-afaf-8cf2e66b51a8{fill:#84bec1;}.e017363c-59cf-41c8-a450-0339bd8f0e58{fill:#649b9b;}.f5282197-4bdf-4998-9d31-185058978f16{fill:#a2dddb;}.f9c7cd99-b102-4b58-bfe6-bfb70c456605{fill:#247272;}.fce4ebfe-ea69-4191-9600-e7a5a923ca7c{fill:#e2eaf0;}.bfe8961a-0c55-4102-b1ff-4c184276aa27{fill:#f2f5f7;}</style></defs><title>Artboard 3</title><g id="fa584206-cc93-4488-b15b-e6e5c68f56c9" data-name="house"><polygon class="b8b33b92-069e-403a-afaf-8cf2e66b51a8" points="0 243 0 89 0 78 131 1 260 77 260 243 132 243 123 238 123 95 43 95 43 238 35 243 0 243"/><polygon class="e017363c-59cf-41c8-a450-0339bd8f0e58" points="0 79 0 90 133 9 260 82 259 77 130 1 0 79"/><polygon class="f5282197-4bdf-4998-9d31-185058978f16" points="35 82 35 242 43 238 43 95 123 95 122 238 132 243 132 82 35 82"/><rect class="f9c7cd99-b102-4b58-bfe6-bfb70c456605" x="151" y="96" width="77" height="77"/><rect class="f9c7cd99-b102-4b58-bfe6-bfb70c456605" x="147" y="173" width="85" height="6"/><rect class="fce4ebfe-ea69-4191-9600-e7a5a923ca7c" x="192" y="100" width="32" height="33"/><polygon class="bfe8961a-0c55-4102-b1ff-4c184276aa27" points="192 119 192 126 224 108 224 101 192 119"/><polyline class="bfe8961a-0c55-4102-b1ff-4c184276aa27" points="192 100 192 107 205 100"/><rect class="fce4ebfe-ea69-4191-9600-e7a5a923ca7c" x="155" y="138" width="32" height="31"/><polyline class="bfe8961a-0c55-4102-b1ff-4c184276aa27" points="159 138 155 140 155 147 171 138"/><rect class="fce4ebfe-ea69-4191-9600-e7a5a923ca7c" x="155" y="100" width="32" height="33"/><polygon class="bfe8961a-0c55-4102-b1ff-4c184276aa27" points="155 120 155 127 187 109 187 102 155 120"/><polygon class="bfe8961a-0c55-4102-b1ff-4c184276aa27" points="167 133 180 133 187 129 187 122 167 133"/><rect class="fce4ebfe-ea69-4191-9600-e7a5a923ca7c" x="192" y="138" width="32" height="31"/><polygon class="bfe8961a-0c55-4102-b1ff-4c184276aa27" points="192 149 192 156 224 138 212 138 192 149"/><polygon class="bfe8961a-0c55-4102-b1ff-4c184276aa27" points="204 169 217 169 224 165 224 158 204 169"/><polygon class="bfe8961a-0c55-4102-b1ff-4c184276aa27" points="155 169 167 169 187 158 187 151 155 169"/><polyline class="bfe8961a-0c55-4102-b1ff-4c184276aa27" points="224 133 224 131 220 133"/></g></svg>